<svg xmlns="http://www.w3.org/2000/svg" width="178" height="36" fill="none" viewBox="0 0 178 36"><path fill="#000" d="M5.592 13.504c.384-.624.936-1.128 1.656-1.512.72-.384 1.544-.576 2.472-.576 1.104 0 2.104.28 3 .84.896.56 1.6 1.36 2.112 2.4.528 1.04.792 2.248.792 3.624s-.264 2.592-.792 3.648c-.512 1.04-1.216 1.848-2.112 2.424-.896.56-1.896.84-3 .84-.944 0-1.768-.184-2.472-.552-.704-.384-1.256-.888-1.656-1.512V25H1.488V7.24h4.104v6.264zm5.856 4.776c0-1.024-.288-1.824-.864-2.4-.56-.592-1.256-.888-2.088-.888-.816 0-1.512.296-2.088.888-.56.592-.84 1.4-.84 2.424s.28 1.832.84 2.424c.576.592 1.272.888 2.088.888.816 0 1.512-.296 2.088-.888.576-.608.864-1.424.864-2.448zm5.513 0c0-1.376.256-2.584.768-3.624.528-1.04 1.24-1.84 2.136-2.4.896-.56 1.896-.84 3-.84.944 0 1.768.192 2.472.576.72.384 1.272.888 1.656 1.512v-1.896h4.104V25h-4.104v-1.896c-.4.624-.96 1.128-1.68 1.512-.704.384-1.528.576-2.472.576-1.088 0-2.08-.28-2.976-.84-.896-.576-1.608-1.384-2.136-2.424-.512-1.056-.768-2.272-.768-3.648zm10.032.024c0-1.024-.288-1.832-.864-2.424a2.73 2.73 0 0 0-2.064-.888c-.816 0-1.512.296-2.088.888-.56.576-.84 1.376-.84 2.4s.28 1.84.84 2.448c.576.592 1.272.888 2.088.888a2.73 2.73 0 0 0 2.064-.888c.576-.592.864-1.4.864-2.424zM38.17 7.24V25h-4.104V7.24h4.104zm2.158 11.04c0-1.376.256-2.584.768-3.624.528-1.04 1.24-1.84 2.136-2.4.896-.56 1.896-.84 3-.84.944 0 1.768.192 2.472.576.72.384 1.272.888 1.656 1.512v-1.896h4.104V25H50.36v-1.896c-.4.624-.96 1.128-1.68 1.512-.704.384-1.528.576-2.472.576-1.088 0-2.08-.28-2.976-.84-.896-.576-1.608-1.384-2.136-2.424-.512-1.056-.768-2.272-.768-3.648zm10.032.024c0-1.024-.288-1.832-.864-2.424a2.73 2.73 0 0 0-2.064-.888c-.816 0-1.512.296-2.088.888-.56.576-.84 1.376-.84 2.4s.28 1.84.84 2.448c.576.592 1.272.888 2.088.888a2.73 2.73 0 0 0 2.064-.888c.576-.592.864-1.4.864-2.424zm15.233-6.84c1.568 0 2.816.512 3.744 1.536.944 1.008 1.416 2.4 1.416 4.176V25h-4.08v-7.272c0-.896-.232-1.592-.696-2.088-.464-.496-1.088-.744-1.872-.744s-1.408.248-1.872.744c-.464.496-.696 1.192-.696 2.088V25h-4.104V11.608h4.104v1.776c.416-.592.976-1.056 1.68-1.392.704-.352 1.496-.528 2.376-.528zm7.196 6.84c0-1.392.28-2.608.84-3.648a6.017 6.017 0 0 1 2.376-2.4c1.024-.56 2.192-.84 3.504-.84 1.68 0 3.08.44 4.2 1.32 1.136.88 1.88 2.12 2.232 3.72h-4.368c-.368-1.024-1.08-1.536-2.136-1.536-.752 0-1.352.296-1.8.888-.448.576-.672 1.408-.672 2.496s.224 1.928.672 2.52c.448.576 1.048.864 1.8.864 1.056 0 1.768-.512 2.136-1.536h4.368c-.352 1.568-1.096 2.8-2.232 3.696-1.136.896-2.536 1.344-4.2 1.344-1.312 0-2.48-.28-3.504-.84a6.017 6.017 0 0 1-2.376-2.4c-.56-1.04-.84-2.256-.84-3.648zm27.971-.24c0 .368-.024.76-.072 1.176H91.4c.064.848.328 1.496.792 1.944.464.448 1.048.672 1.752.672 1.024 0 1.736-.432 2.136-1.296h4.368a5.915 5.915 0 0 1-1.224 2.376 5.958 5.958 0 0 1-2.184 1.656c-.88.4-1.864.6-2.952.6-1.312 0-2.48-.28-3.504-.84a5.975 5.975 0 0 1-2.4-2.4c-.576-1.04-.864-2.256-.864-3.648 0-1.392.28-2.608.84-3.648a5.975 5.975 0 0 1 2.4-2.4c1.024-.56 2.2-.84 3.528-.84 1.296 0 2.448.272 3.456.816a5.781 5.781 0 0 1 2.352 2.328c.576 1.008.864 2.176.864 3.504zm-4.2-.912c0-.768-.24-1.368-.72-1.8-.48-.432-1.08-.648-1.8-.648-.704 0-1.296.216-1.776.648-.464.416-.752 1.016-.864 1.8h5.16z"/><path fill="#000" d="M125 18.5c0 9.665 7.897 17.5 17.639 17.5V1C132.897 1 125 8.835 125 18.5z"/><ellipse cx="160.361" cy="18.5" fill="#000" rx="17.639" ry="17.5"/></svg>