<?xml version="1.0" standalone="no"?>
<!DOCTYPE svg PUBLIC "-//W3C//DTD SVG 20010904//EN"
 "http://www.w3.org/TR/2001/REC-SVG-20010904/DTD/svg10.dtd">
<svg version="1.0" xmlns="http://www.w3.org/2000/svg"
 width="848.000000pt" height="848.000000pt" viewBox="0 0 848.000000 848.000000"
 preserveAspectRatio="xMidYMid meet">
<metadata>
Created by potrace 1.11, written by Peter Selinger 2001-2013
</metadata>
<g transform="translate(0.000000,848.000000) scale(0.100000,-0.100000)"
fill="#000000" stroke="none">
<path d="M2637 7035 c-1 -2 -38 -6 -82 -9 -86 -7 -130 -13 -185 -23 -19 -3
-42 -7 -50 -8 -29 -5 -85 -16 -100 -20 -8 -2 -26 -6 -40 -9 -14 -2 -45 -10
-70 -17 -25 -7 -47 -13 -50 -14 -3 -1 -25 -7 -50 -14 -49 -14 -153 -48 -185
-61 -173 -72 -228 -97 -273 -121 -29 -16 -60 -29 -68 -29 -8 0 -14 -3 -14 -8
0 -4 -21 -18 -47 -32 -68 -35 -309 -194 -333 -220 -3 -3 -27 -23 -55 -45 -27
-22 -61 -49 -74 -60 -34 -28 -230 -223 -266 -265 -81 -94 -195 -242 -215 -281
-7 -13 -16 -26 -20 -29 -3 -3 -24 -34 -45 -70 -21 -36 -45 -76 -54 -90 -18
-27 -97 -187 -131 -264 -71 -159 -145 -395 -174 -548 -42 -228 -50 -311 -50
-548 -1 -176 7 -331 20 -385 2 -11 6 -36 8 -55 4 -29 31 -167 51 -256 4 -17
38 -129 75 -244 21 -65 73 -187 133 -310 60 -122 172 -310 190 -318 4 -2 7 -9
7 -15 0 -7 11 -24 25 -39 14 -15 25 -30 25 -33 0 -14 176 -220 265 -309 160
-160 278 -259 440 -366 44 -29 92 -61 106 -71 38 -26 263 -141 339 -173 99
-42 102 -43 150 -61 84 -32 277 -90 333 -100 12 -3 42 -9 67 -14 25 -5 63 -13
85 -17 22 -4 45 -8 50 -9 15 -3 126 -17 165 -21 19 -2 90 -6 158 -9 l122 -6 1
23 c1 31 1 5539 0 5560 -1 14 -13 17 -91 16 -50 -1 -91 -2 -93 -3z"/>
<path d="M5468 7035 c-1 -1 -34 -5 -73 -8 -69 -6 -187 -22 -235 -32 -13 -2
-42 -7 -63 -10 -22 -4 -49 -10 -61 -14 -11 -5 -24 -9 -29 -9 -38 -2 -277 -74
-372 -112 -91 -36 -223 -97 -239 -110 -10 -8 -20 -14 -22 -12 -5 4 -164 -83
-240 -131 -62 -39 -225 -156 -239 -171 -6 -6 -30 -27 -55 -46 -74 -57 -223
-202 -303 -295 -15 -16 -35 -39 -46 -50 -37 -39 -191 -250 -191 -262 0 -7 -4
-13 -10 -13 -5 0 -10 -7 -10 -15 0 -8 -4 -15 -10 -15 -5 0 -10 -6 -10 -14 0
-8 -4 -16 -8 -18 -5 -1 -33 -48 -62 -103 -30 -55 -58 -101 -62 -103 -4 -2 -8
-9 -8 -16 0 -7 -8 -30 -19 -52 -96 -202 -184 -472 -215 -655 -3 -19 -8 -43
-10 -55 -2 -12 -7 -45 -11 -74 -4 -29 -9 -62 -11 -74 -6 -32 -17 -261 -17
-356 0 -88 9 -225 19 -295 3 -22 7 -58 9 -80 2 -22 6 -51 10 -65 3 -14 7 -36
9 -50 7 -42 57 -241 79 -310 11 -36 22 -68 23 -72 1 -5 3 -10 4 -13 1 -3 3 -8
5 -12 1 -5 5 -17 10 -28 4 -11 20 -53 36 -92 96 -247 297 -578 463 -762 121
-136 220 -234 311 -311 28 -23 63 -53 79 -66 15 -13 30 -24 33 -24 2 0 25 -17
51 -38 26 -20 56 -43 67 -50 55 -34 81 -52 91 -60 29 -26 255 -146 375 -200
96 -44 325 -126 382 -137 10 -2 27 -7 37 -10 34 -11 166 -40 220 -49 19 -3 46
-8 60 -10 148 -25 217 -29 440 -30 184 -1 308 5 380 18 14 3 43 7 65 10 22 2
47 7 55 10 8 2 31 7 50 10 19 2 44 7 55 9 11 3 49 12 85 21 94 22 210 58 325
101 108 40 388 173 393 187 2 4 8 8 14 8 9 0 196 117 208 130 3 3 19 14 35 24
17 11 64 47 105 80 216 175 376 343 539 566 22 30 46 62 53 70 7 8 11 15 9 15
-5 0 29 56 39 65 21 18 158 285 200 390 19 47 37 90 41 95 4 6 15 37 25 70 22
75 20 67 27 85 20 48 79 298 92 390 3 19 7 49 10 65 26 173 26 672 0 748 -2 6
-6 30 -9 52 -2 22 -7 51 -10 65 -3 14 -8 39 -11 55 -42 248 -181 617 -317 843
-21 34 -38 67 -38 72 0 6 -3 10 -8 10 -4 0 -16 17 -27 38 -11 20 -25 41 -32
45 -7 4 -13 12 -13 18 0 11 -110 156 -189 249 -53 63 -217 228 -277 280 -107
93 -306 240 -324 240 -6 0 -10 4 -10 8 0 5 -15 16 -32 25 -18 10 -49 27 -68
38 -101 62 -208 114 -385 189 -110 46 -363 123 -445 136 -14 2 -36 6 -50 9
-14 3 -36 7 -50 10 -14 2 -38 6 -55 8 -16 3 -53 8 -80 12 -28 3 -64 8 -80 11
-33 5 -471 14 -477 9z"/>
</g>
</svg>
